<svg xmlns="http://www.w3.org/2000/svg" width="50" height="50" viewBox="0 0 50 50"> <g id="ap" transform="translate(-10 -10)"> <path id="Path_1710" data-name="Path 1710" d="M34.985,10a25,25,0,0,0,0,50,20.482,20.482,0,0,0,3.24-.235A24.98,24.98,0,0,0,59.755,38.4,22.537,22.537,0,0,0,60,35.01,25.046,25.046,0,0,0,34.985,10ZM12.526,35.015a22.325,22.325,0,0,1,1.954-9.143L25.194,55.235A22.489,22.489,0,0,1,12.526,35.015ZM37.9,57.306a23.835,23.835,0,0,1-2.918.184,22.137,22.137,0,0,1-6.327-.923L31.107,49.4h.015l4.26-12.434L42.3,55.9c.051.1.117.209.168.3A23.716,23.716,0,0,1,37.9,57.306ZM38.1,24.464c1.352-.066,2.566-.209,2.566-.209a.926.926,0,0,0-.143-1.847s-3.648.286-5.99.286c-2.2,0-5.923-.286-5.923-.286a.926.926,0,0,0-.133,1.847s1.133.143,2.357.209l3.505,9.6L29.413,48.816,21.224,24.464c1.367-.066,2.577-.209,2.577-.209a.926.926,0,0,0-.143-1.847s-3.633.286-5.99.286c-.429,0-.923-.015-1.444-.026a22.481,22.481,0,0,1,33.944-4.23c-.1,0-.194-.015-.3-.015a3.893,3.893,0,0,0-3.776,3.995c0,1.847,1.066,3.413,2.2,5.26a11.819,11.819,0,0,1,1.862,6.2,20.926,20.926,0,0,1-1.7,7.255l-2.255,7.5Zm8.194,29.974,1.786-5.168,5.077-14.689a21.027,21.027,0,0,0,1.7-8.046,18.27,18.27,0,0,0-.143-2.316,22.336,22.336,0,0,1,2.76,10.8,24.231,24.231,0,0,1-.194,3.061A22.518,22.518,0,0,1,46.291,54.439Z" fill="#567fed"/> </g> </svg> 