<svg xmlns="http://www.w3.org/2000/svg" width="77.999" height="48.499" viewBox="0 0 77.999 48.499"> <g id="woo" transform="translate(1 1)"> <path id="Path_1124" data-name="Path 1124" d="M145.053,331.2h61.861A7.081,7.081,0,0,1,214,338.284V361.9a7.081,7.081,0,0,1-7.084,7.084H184.729l3.045,7.457-13.391-7.457h-29.3A7.081,7.081,0,0,1,138,361.9V338.284A7.054,7.054,0,0,1,145.053,331.2Z" transform="translate(-137.999 -331.2)" fill="none" stroke="#567fed" stroke-width="2" fill-rule="evenodd"/> <path id="Path_1125" data-name="Path 1125" d="M148.988,346.623a2.257,2.257,0,0,1,1.766-.869,2.048,2.048,0,0,1,2.439,2.019q1.3,8.79,2.832,14.887l6.14-11.691a2.662,2.662,0,0,1,2.1-1.682c1.234-.084,1.991.7,2.3,2.355a52.374,52.374,0,0,0,2.663,9.589q1.093-10.682,3.7-15.42a2.154,2.154,0,0,1,1.85-1.234,2.435,2.435,0,0,1,1.766.561,2.2,2.2,0,0,1,.869,1.6,2.433,2.433,0,0,1-.28,1.346c-1.093,2.019-1.991,5.411-2.719,10.121a52.209,52.209,0,0,0-.785,10.682,3.328,3.328,0,0,1-.336,1.851,1.807,1.807,0,0,1-1.486,1.009,2.819,2.819,0,0,1-2.215-1.037q-3.911-4-6.2-11.944-2.733,5.383-4.037,8.075c-1.654,3.168-3.056,4.794-4.233,4.878-.757.056-1.4-.589-1.963-1.935q-2.145-5.509-4.626-21.28A2.5,2.5,0,0,1,148.988,346.623Z" transform="translate(-141.888 -338.943)" fill="#4980f5"/> <path id="Path_1126" data-name="Path 1126" d="M327.275,358.821a6.457,6.457,0,0,0-4.486-3.252,7.359,7.359,0,0,0-1.514-.168c-2.691,0-4.878,1.4-6.588,4.206a14.856,14.856,0,0,0-2.187,7.906,10.856,10.856,0,0,0,1.346,5.551,6.456,6.456,0,0,0,4.486,3.252,7.346,7.346,0,0,0,1.514.168c2.719,0,4.906-1.4,6.589-4.206a15.024,15.024,0,0,0,2.187-7.934,10.608,10.608,0,0,0-1.346-5.523Zm-3.533,7.766a7.416,7.416,0,0,1-2.131,4.149,2.7,2.7,0,0,1-2.271.9c-.673-.14-1.234-.729-1.654-1.822a7.117,7.117,0,0,1-.5-2.551,9.753,9.753,0,0,1,.2-2.047,9.064,9.064,0,0,1,1.486-3.336c.925-1.374,1.906-1.935,2.916-1.738.673.14,1.234.729,1.654,1.822a7.118,7.118,0,0,1,.5,2.551,12.115,12.115,0,0,1-.2,2.075Z" transform="translate(-259.898 -346.739)" fill="#4980f5"/> <path id="Path_1127" data-name="Path 1127" d="M264.575,358.821a6.515,6.515,0,0,0-4.486-3.252,7.359,7.359,0,0,0-1.514-.168c-2.691,0-4.878,1.4-6.589,4.206a14.856,14.856,0,0,0-2.187,7.906,10.855,10.855,0,0,0,1.346,5.551,6.456,6.456,0,0,0,4.486,3.252,7.346,7.346,0,0,0,1.514.168c2.719,0,4.906-1.4,6.588-4.206a15.023,15.023,0,0,0,2.187-7.934,10.608,10.608,0,0,0-1.346-5.523Zm-3.533,7.766a7.416,7.416,0,0,1-2.131,4.149,2.7,2.7,0,0,1-2.271.9c-.673-.14-1.234-.729-1.654-1.822a7.116,7.116,0,0,1-.5-2.551,9.749,9.749,0,0,1,.2-2.047,9.066,9.066,0,0,1,1.486-3.336c.925-1.374,1.907-1.935,2.916-1.738.673.14,1.234.729,1.654,1.822a7.116,7.116,0,0,1,.5,2.551,9.831,9.831,0,0,1-.2,2.075Z" transform="translate(-214.776 -346.739)" fill="#4980f5"/> </g> </svg>